<svg xmlns="http://www.w3.org/2000/svg" width="200" height="42" viewBox="0 0 200 42"><path fill="#848484" d="M5.4 8.7h3.8c.2 0 .4-.2.4-.4V4.2c0-.7.2-1.4.4-1.9l.1-.3-7.4 7.3.4-.2c.6-.3 1.4-.4 2.3-.4zM34.6 8c-.3-1.6-1.2-2.3-2.1-2.6-.9-.3-1.8-.7-4.2-1-1.9-.2-3.9-.3-5.3-.3-.4-1.1-1-2.3-3.3-2.9-1.6-.4-4.5-.3-5.4-.2-1.4.2-1.9.8-2.3 1.2-.4.4-.7 1.5-.7 2.2V8.3c0 1.2-.8 2.1-2.2 2.1H5.7c-.8 0-1.4.1-1.9.3-.4.3-.8.7-1 1-.5.7-.6 1.5-.6 2.4 0 0 0 .7.2 2 .1 1 1.2 7.6 2.2 9.8.4.9.7 1.2 1.5 1.6 1.8.8 5.9 1.6 7.9 1.9 1.9.2 3.2.8 3.9-.7 0 0 .1-.4.3-.9.6-1.9.7-3.6.7-4.8 0-.1.2-.1.2 0 0 .9-.2 3.9 2.1 4.7.9.3 2.8.6 4.7.8 1.7.2 3 .9 3 5.3 0 2.7-.6 3.1-3.5 3.1-2.4 0-3.3.1-3.3-1.9 0-1.5 1.5-1.4 2.7-1.4.5 0 .1-.4.1-1.3 0-1 .6-1.5 0-1.5-3.9-.1-6.2 0-6.2 4.9 0 4.5 1.7 5.3 7.3 5.3 4.4 0 5.9-.1 7.7-5.7.4-1.1 1.2-4.5 1.7-10.1.4-3.7-.3-14.5-.8-17.2zM27 19.9c-.5 0-.8 0-1.3.1h-.2s-.1 0-.1-.1v-.1c.2-1 .7-2.2 2.2-2.2 1.6.1 2 1.5 2 2.6v.1c0 .1-.1.1-.1.1-.1 0-.1 0-.1-.1-.7-.2-1.5-.3-2.4-.4z"/><path fill="#2DBE60" d="M44.6 27.1h2.2l.1-13.8h-2.3v-2.6h14.3l.2 5.4h-2.8l-.3-2.8h-5.4v5.4H56v2.6h-5.5V27h5.4l.3-3.1h3.1l-.3 5.8H44.6v-2.6zm37.2-13.8H80l-6.8 16.4h-3.9l-6.8-16.4h-1.9v-2.6h8.1v2.6h-1.9l4.7 12.9h.1l4.7-12.9H74v-2.6h7.9v2.6zm1.8 13.8h2.2l.1-13.8h-2.3v-2.6h14.3l.2 5.4h-2.8l-.3-2.8h-5.4v5.4h5.5v2.6h-5.5V27H95l.3-3.1h3.1l-.4 5.8H83.6v-2.6zm18.4 0h2.2l.1-13.8H102v-2.6h8.8c4.4 0 5.8 2.5 5.8 5 0 2.2-1.1 4.2-4.5 5v.1c1.8.5 2.2.9 4 4 1.2 2 1.6 2.3 2.3 2.3.3 0 .6-.1.8-.1v2.7h-1.9c-2.6 0-2.9-.3-4.9-4.3-1.8-3.5-2.2-3.8-3.6-3.8h-.8v5.5h2.3v2.6H102v-2.6zm6-8.1h1.5c2 0 3.4-1.1 3.4-2.9 0-1.7-.9-2.8-2.6-2.8H108V19zm28.6-5.7h-2.3v-2.6h7.5v2.6h-2.2l-.1 16.4h-2.8l-10.2-13.5h-.1l-.1 10.9h2.3v2.6h-7.5v-2.6h2.2l.1-13.8h-2.3v-2.6h5.6l9.7 12.9h.1l.1-10.3zm16-3c6.6 0 9.5 4.3 9.5 9.6 0 6-3.6 10.2-9.5 10.2-6.6 0-9.4-4.3-9.4-9.7 0-5.9 3.6-10.1 9.4-10.1zm0 16.7c3.5 0 5.6-3 5.6-6.9 0-4.3-2.4-6.8-5.6-6.8-3.5 0-5.6 3-5.6 6.9.1 4.4 2.5 6.8 5.6 6.8zm15.5.1h2.2l.1-13.8h-3.8l-.1 2.7h-2.9l.2-5.4h17.1l.1 5.4h-2.9l-.1-2.7h-3.8l-.2 13.8h2.3v2.6h-8.2v-2.6zm15 0h2.2l.1-13.8h-2.3v-2.6h14.3l.2 5.4h-2.8l-.2-2.7h-5.4v5.4h5.5v2.6H189v5.7h5.4l.3-3.1h3.1l-.3 5.7h-14.4v-2.6z"/></svg>